<svg width="32" height="32" viewBox="0 0 32 32" fill="none" xmlns="http://www.w3.org/2000/svg">
<g clip-path="url(#clip0)">
<rect width="32" height="32" fill="#5651FF"/>
<path d="M11.4784 18.3405C11.5283 18.665 11.5533 18.927 11.5533 19.1267C11.5782 19.3264 11.5907 19.5261 11.5907 19.7258C11.5907 20.3498 11.5034 21.0861 11.3286 21.9347C11.1789 22.7834 10.9043 23.5946 10.505 24.3683C10.1306 25.1171 9.61888 25.7661 8.96992 26.3152C8.34592 26.8394 7.5472 27.1014 6.57376 27.1014C5.6752 27.1014 4.82656 26.8518 4.02784 26.3526C3.22912 25.8285 2.51776 25.167 1.89376 24.3683C1.26976 23.5446 0.77056 22.6336 0.39616 21.6352C0.04672 20.6118 -0.128 19.601 -0.128 18.6026C-0.128 17.1549 -0.04064 15.9194 0.13408 14.896C0.33376 13.8477 0.60832 12.9366 0.95776 12.1629C0.95776 12.088 0.90784 12.0131 0.808 11.9382C0.73312 11.8634 0.69568 11.7635 0.69568 11.6387C0.69568 11.5139 0.808 11.3517 1.03264 11.152C1.28224 10.9523 1.56928 10.7651 1.89376 10.5904C2.2432 10.3907 2.58016 10.2285 2.90464 10.1037C3.25408 9.95392 3.51616 9.87904 3.69088 9.87904C3.79072 9.87904 3.95296 9.92896 4.1776 10.0288C4.4272 10.1286 4.7392 10.1786 5.1136 10.1786C5.2384 10.1786 5.3632 10.1661 5.488 10.1411C5.6128 10.1162 5.75008 10.1037 5.89984 10.1037C6.424 10.1037 6.9856 10.3533 7.58464 10.8525C8.20864 11.3267 8.78272 11.9507 9.30688 12.7245C9.856 13.4982 10.3178 14.3843 10.6922 15.3827C11.0915 16.3562 11.3536 17.3421 11.4784 18.3405ZM9.9808 19.8006C9.9808 19.3264 9.88096 18.6525 9.68128 17.7789C9.4816 16.8803 9.18208 16.0067 8.78272 15.1581C8.38336 14.2845 7.89664 13.5232 7.32256 12.8742C6.77344 12.2253 6.14944 11.9008 5.45056 11.9008C5.40064 11.9008 5.3008 11.9008 5.15104 11.9008C5.02624 11.8758 4.87648 11.8634 4.70176 11.8634C4.52704 11.8384 4.3648 11.8259 4.21504 11.8259C4.06528 11.801 3.97792 11.7885 3.95296 11.7885C3.5536 11.7885 3.20416 11.9757 2.90464 12.3501C2.63008 12.7245 2.39296 13.2112 2.19328 13.8102C2.01856 14.4093 1.88128 15.0957 1.78144 15.8694C1.6816 16.6432 1.63168 17.417 1.63168 18.1907C1.63168 18.4653 1.70656 19.0019 1.85632 19.8006C2.00608 20.5744 2.26816 21.3856 2.64256 22.2342C3.04192 23.0579 3.56608 23.7942 4.21504 24.4432C4.864 25.0922 5.68768 25.4166 6.68608 25.4166C7.36 25.4166 7.90912 25.217 8.33344 24.8176C8.75776 24.3933 9.08224 23.8816 9.30688 23.2826C9.55648 22.6835 9.7312 22.072 9.83104 21.448C9.93088 20.799 9.9808 20.2499 9.9808 19.8006ZM32.5317 23.8067C32.5317 24.6554 32.2946 25.3792 31.8203 25.9782C31.371 26.5773 30.5848 26.8768 29.4616 26.8768C28.6878 26.8768 27.9016 26.7395 27.1029 26.465C26.3291 26.1904 25.5678 25.8285 24.819 25.3792C24.0702 24.9299 23.3464 24.4058 22.6475 23.8067C21.9736 23.2077 21.3621 22.5837 20.813 21.9347C20.763 22.1594 20.6882 22.4838 20.5883 22.9082C20.4885 23.3325 20.3637 23.7568 20.2139 24.1811C20.0642 24.6054 19.8894 24.9798 19.6898 25.3043C19.515 25.6038 19.3278 25.7536 19.1282 25.7536C18.8037 25.7536 18.4418 25.5914 18.0424 25.2669C17.668 24.9424 17.2811 24.5181 16.8818 23.9939C16.5074 23.4448 16.133 22.8208 15.7586 22.1219C15.4091 21.423 15.0971 20.6992 14.8226 19.9504C14.0987 17.8787 13.637 16.2563 13.4373 15.0832C13.2376 13.8851 13.1378 13.2362 13.1378 13.1363C13.1378 12.9866 13.1627 12.8493 13.2126 12.7245C13.2626 12.5997 13.3749 12.5373 13.5496 12.5373C13.8242 12.5373 14.0238 12.6246 14.1486 12.7994C14.2984 12.9491 14.3982 13.1488 14.4482 13.3984C14.573 13.9226 14.7352 14.5341 14.9349 15.233C15.1595 15.9069 15.3966 16.6058 15.6462 17.3296C15.9208 18.0534 16.1954 18.7648 16.4699 19.4637C16.7694 20.1376 17.0565 20.7491 17.331 21.2982C17.6056 21.8474 17.8677 22.2966 18.1173 22.6461C18.3669 22.9706 18.579 23.1328 18.7538 23.1328C18.9285 23.1328 19.0533 22.9955 19.1282 22.721C19.228 22.4214 19.3029 22.0845 19.3528 21.7101C19.4027 21.3357 19.4277 20.9738 19.4277 20.6243C19.4526 20.2749 19.4651 20.0378 19.4651 19.913C19.3403 19.6883 19.2405 19.4262 19.1656 19.1267C19.1157 18.8272 19.0907 18.5776 19.0907 18.3779C19.0907 18.0534 19.1656 17.7789 19.3154 17.5542C19.4901 17.3296 19.6523 17.2173 19.8021 17.2173C19.9019 17.2173 19.9643 17.2298 19.9893 17.2547C20.0392 17.2797 20.1016 17.3046 20.1765 17.3296C20.2514 17.3296 20.3138 17.3296 20.3637 17.3296C20.4136 17.3046 20.476 17.2922 20.5509 17.2922C20.6008 17.2922 20.6507 17.3171 20.7006 17.367C20.7755 17.392 20.8504 17.4918 20.9253 17.6666C21.2498 18.5152 21.7115 19.3888 22.3106 20.2874C22.9096 21.1859 23.5835 21.9971 24.3323 22.721C25.0811 23.4448 25.8923 24.0438 26.7659 24.5181C27.6395 24.9923 28.5256 25.2294 29.4242 25.2294C29.7486 25.2294 30.0482 25.1296 30.3227 24.9299C30.5973 24.7053 30.7346 24.4182 30.7346 24.0688C30.7346 23.0205 30.6222 21.9472 30.3976 20.849C30.1979 19.7507 29.9109 18.6275 29.5365 17.4794C29.187 16.3312 28.7752 15.1706 28.301 13.9974C27.8267 12.7994 27.34 11.5763 26.8408 10.3283C26.4165 9.28 26.0046 8.45632 25.6053 7.85728C25.2309 7.23328 24.8939 6.74656 24.5944 6.39712C24.3198 6.02272 24.0952 5.7232 23.9205 5.49856C23.7458 5.24896 23.6584 4.94944 23.6584 4.6C23.6584 4.17568 23.8082 3.86368 24.1077 3.664C24.4322 3.46432 24.7691 3.36448 25.1186 3.36448C25.3182 3.36448 25.5429 3.56416 25.7925 3.96352C26.0421 4.33792 26.3042 4.83712 26.5787 5.46112C26.8533 6.06016 27.1278 6.73408 27.4024 7.48288C27.677 8.23168 27.9515 8.98048 28.2261 9.72928C28.6254 10.8275 29.0747 12.0131 29.5739 13.2861C30.0731 14.5341 30.5349 15.7946 30.9592 17.0675C31.4085 18.3155 31.7829 19.5261 32.0824 20.6992C32.3819 21.8723 32.5317 22.9082 32.5317 23.8067Z" fill="white"/>
</g>
<defs>
<clipPath id="clip0">
<rect width="32" height="32" fill="white"/>
</clipPath>
</defs>
</svg>
